<svg xmlns="http://www.w3.org/2000/svg" width="1200" height="630" viewBox="0 0 1200 630" role="img" aria-labelledby="title desc">
  <title id="title">BGMC Technologies social preview</title>
  <desc id="desc">A branded preview image for BGMC Technologies showing quick AI development, automation, internal tools and business workflows.</desc>
  <defs>
    <linearGradient id="bg" x1="0" y1="0" x2="1" y2="1">
      <stop offset="0" stop-color="#100f0d"/>
      <stop offset="0.58" stop-color="#161711"/>
      <stop offset="1" stop-color="#0f1b1c"/>
    </linearGradient>
    <linearGradient id="panel" x1="0" y1="0" x2="1" y2="1">
      <stop offset="0" stop-color="#1d1b16"/>
      <stop offset="1" stop-color="#111918"/>
    </linearGradient>
    <linearGradient id="goldLine" x1="0" y1="0" x2="1" y2="0">
      <stop offset="0" stop-color="#e6a92e"/>
      <stop offset="1" stop-color="#54b7a6"/>
    </linearGradient>
    <filter id="shadow" x="-25%" y="-25%" width="150%" height="150%">
      <feDropShadow dx="0" dy="24" stdDeviation="24" flood-color="#000000" flood-opacity="0.35"/>
    </filter>
    <pattern id="grid" width="38" height="38" patternUnits="userSpaceOnUse">
      <path d="M 38 0 L 0 0 0 38" fill="none" stroke="#efeae2" stroke-width="1" opacity="0.045"/>
    </pattern>
  </defs>

  <rect width="1200" height="630" fill="url(#bg)"/>
  <rect width="1200" height="630" fill="url(#grid)"/>
  <path d="M-10 548 C184 474 330 515 492 438 C650 362 744 204 930 168 C1058 143 1148 170 1215 206 L1215 630 L-10 630 Z" fill="#e6a92e" opacity="0.085"/>
  <path d="M-30 112 H48" stroke="#e6a92e" stroke-width="10" opacity="0.9"/>
  <path d="M470 112 H582" stroke="#e6a92e" stroke-width="10" opacity="0.9"/>
  <path d="M582 112 H622" stroke="#54b7a6" stroke-width="10" opacity="0.95"/>

  <g transform="translate(72 68)">
    <rect x="-12" y="-10" width="408" height="148" rx="10" fill="#11100d" stroke="#302a22"/>
    <image href="bgmc-wordmark.png" x="0" y="0" width="360" height="128" preserveAspectRatio="xMinYMin meet"/>
  </g>

  <g transform="translate(72 220)">
    <text x="0" y="0" fill="#f5efe6" font-family="Avenir Next, Helvetica Neue, Arial, sans-serif" font-size="68" font-weight="850" letter-spacing="0">
      <tspan x="0" dy="0">Quick AI development</tspan>
      <tspan x="0" dy="74">for real workflows.</tspan>
    </text>
    <text x="0" y="188" fill="#d8d0c6" font-family="Avenir Next, Helvetica Neue, Arial, sans-serif" font-size="30" font-weight="600">
      <tspan x="0" dy="0">AI assistants, automations, internal tools</tspan>
      <tspan x="0" dy="40">and websites for UK businesses.</tspan>
    </text>
  </g>

  <g transform="translate(72 506)" font-family="Avenir Next, Helvetica Neue, Arial, sans-serif">
    <rect x="0" y="0" width="358" height="62" rx="8" fill="#151914" stroke="#e6a92e" stroke-width="2"/>
    <circle cx="33" cy="31" r="6" fill="#e6a92e"/>
    <text x="56" y="39" fill="#e6a92e" font-size="22" font-weight="850">Free 3-point AI Fix List</text>
    <rect x="382" y="0" width="238" height="62" rx="8" fill="#151914" stroke="#33423b"/>
    <circle cx="408" cy="31" r="6" fill="#54b7a6"/>
    <text x="438" y="39" fill="#efeae2" font-size="18" font-weight="720">Build. Ship. Automate.</text>
  </g>

  <g transform="translate(686 78)" filter="url(#shadow)">
    <rect x="0" y="0" width="442" height="474" rx="8" fill="url(#panel)" stroke="#3a3329"/>
    <rect x="24" y="24" width="394" height="58" rx="8" fill="#171510" stroke="#302a22"/>
      <text x="46" y="59" fill="#f5efe6" font-family="Avenir Next, Helvetica Neue, Arial, sans-serif" font-size="18" font-weight="850">AI development sprint map</text>
    <circle cx="382" cy="53" r="9" fill="#e6a92e"/>

    <g transform="translate(28 112)" font-family="Avenir Next, Helvetica Neue, Arial, sans-serif">
      <g>
        <rect x="0" y="0" width="386" height="72" rx="8" fill="#171510" stroke="#302a22"/>
        <rect x="18" y="18" width="36" height="36" rx="8" fill="#e6a92e"/>
        <path d="M28 36 L35 43 L46 27" fill="none" stroke="#100f0d" stroke-width="5" stroke-linecap="round" stroke-linejoin="round"/>
        <text x="72" y="30" fill="#efeae2" font-size="19" font-weight="800">AI assistants</text>
        <text x="72" y="54" fill="#bdb4a8" font-size="14" font-weight="600">Intake, drafting and summaries</text>
        <path d="M295 26 H352" stroke="#54b7a6" stroke-width="8" stroke-linecap="round"/>
        <path d="M295 48 H330" stroke="#e6a92e" stroke-width="8" stroke-linecap="round"/>
      </g>
      <g transform="translate(0 88)">
        <rect x="0" y="0" width="386" height="72" rx="8" fill="#171510" stroke="#302a22"/>
        <rect x="18" y="18" width="36" height="36" rx="8" fill="#54b7a6"/>
        <path d="M27 37 H45 M36 28 V46" stroke="#0f1b1c" stroke-width="5" stroke-linecap="round"/>
        <text x="72" y="30" fill="#efeae2" font-size="19" font-weight="800">Automation flows</text>
        <text x="72" y="54" fill="#bdb4a8" font-size="14" font-weight="600">CRM, reporting, follow-up systems</text>
        <circle cx="306" cy="36" r="10" fill="#e6a92e"/>
        <circle cx="336" cy="36" r="10" fill="#54b7a6"/>
        <circle cx="366" cy="36" r="10" fill="#d8d0c6"/>
      </g>
      <g transform="translate(0 176)">
        <rect x="0" y="0" width="386" height="72" rx="8" fill="#171510" stroke="#302a22"/>
        <rect x="18" y="18" width="36" height="36" rx="8" fill="#e6a92e"/>
        <path d="M28 43 L36 25 L44 43" fill="none" stroke="#100f0d" stroke-width="5" stroke-linecap="round" stroke-linejoin="round"/>
        <text x="72" y="30" fill="#efeae2" font-size="19" font-weight="800">Business tools</text>
        <text x="72" y="54" fill="#bdb4a8" font-size="14" font-weight="600">Dashboards, portals, websites, UX</text>
        <path d="M296 49 C314 21 340 21 360 49" fill="none" stroke="#54b7a6" stroke-width="7" stroke-linecap="round"/>
      </g>
    </g>

    <g transform="translate(28 394)" font-family="Avenir Next, Helvetica Neue, Arial, sans-serif">
      <rect x="0" y="0" width="104" height="54" rx="8" fill="#171510" stroke="#302a22"/>
      <text x="52" y="24" fill="#e6a92e" font-size="18" font-weight="850" text-anchor="middle">3</text>
      <text x="52" y="43" fill="#bdb4a8" font-size="9" font-weight="650" text-anchor="middle">priority fixes</text>
      <rect x="116" y="0" width="104" height="54" rx="8" fill="#171510" stroke="#302a22"/>
      <text x="168" y="24" fill="#54b7a6" font-size="18" font-weight="850" text-anchor="middle">AI</text>
      <text x="168" y="43" fill="#bdb4a8" font-size="9" font-weight="650" text-anchor="middle">human approval</text>
      <rect x="232" y="0" width="104" height="54" rx="8" fill="#171510" stroke="#302a22"/>
      <text x="284" y="24" fill="#e6a92e" font-size="18" font-weight="850" text-anchor="middle">UK</text>
      <text x="284" y="43" fill="#bdb4a8" font-size="9" font-weight="650" text-anchor="middle">business focus</text>
    </g>
  </g>

  <text x="72" y="604" fill="#9c9284" font-family="Avenir Next, Helvetica Neue, Arial, sans-serif" font-size="18" font-weight="600">bgmc-technologies.co.uk</text>
</svg>
